<svg xmlns="http://www.w3.org/2000/svg" xmlns:xlink="http://www.w3.org/1999/xlink" width="27" height="27" viewBox="0 0 27 27">
    <g transform="translate(-1025 -483)">
      <path d="M1038.5 483a13.5 13.5 0 1 1 0 27 13.5 13.5 0 0 1 0-27zm-11.5 13.5a11.5 11.5 0 1 0 23 0 11.5 11.5 0 0 0-23 0zm14.67.6l-.46.43-3.34 3.12-.04.04c-.42.4-1.1.4-1.53 0a.97.97 0 0 1 0-1.44l1.26-1.18 1.7-1.59-1.7-1.59-1.26-1.18a.97.97 0 0 1 0-1.43c.42-.4 1.1-.4 1.53 0l.04.03s3.25 2.92 3.92 3.5c.3.4.26.94-.12 1.3zm.12-1.3l-.12-.13c.3.28.3.3.12.14z" />
    </g>
</svg>
