<svg xmlns="http://www.w3.org/2000/svg" xmlns:xlink="http://www.w3.org/1999/xlink" width="32" height="32" viewBox="0 0 32 32">
    <path transform="translate(-1394 -1495)" d="M1401.89 1496.99l2 6.04 4.21-6.04zm16.6 0h-6.43l4.44 5.72zm5.04 7l-3.21-6.15-2.15 6.15zm-26.97 0h5.54l-2.13-6.42zm26.7 2h-5.78l-5.25 15.01zm-18.39 0l5.11 15.39 5.38-15.4zm-7.88 0l10.75 14.98-4.98-14.98zm23.1-11c.54 0 1.2.4 1.46.89l4.37 8.35c.25.49.2 1.25-.13 1.7l-15.25 20.75a.73.73 0 0 1-.58.33.73.73 0 0 1-.6-.34l-15-20.9a1.77 1.77 0 0 1-.1-1.7l4.35-8.2c.26-.48.92-.88 1.47-.88h9.85a1 1 0 0 1 .14 0zm-10.03 2.68l-4.4 6.32h9.3z" />
</svg>
