<svg xmlns="http://www.w3.org/2000/svg" xmlns:xlink="http://www.w3.org/1999/xlink" width="26" height="32" viewBox="0 0 26 32">
    <path transform="translate(-1097 -1294)" d="M1107.97 1322.04c-1.95 0-3.84-.37-5.63-1.1a1 1 0 1 1 .75-1.85 13 13 0 0 0 4.88.95c7.58 0 13.08-5.5 13.08-13.07 0-4.56-2.41-8.7-6.45-11.08a1 1 0 0 1 1.01-1.72 14.77 14.77 0 0 1 7.44 12.8c0 8.04-5.39 14.06-13.07 14.95v2.09h3.01c.58 0 1.05.44 1.05 1 0 .54-.47 1-1.05 1h-7.9c-.58 0-1.05-.46-1.05-1 0-.56.47-1 1.05-1h2.9v-1.97h-.02zm0-24.03a9.05 9.05 0 0 0-9.02 9.05 9 9 0 0 0 9.02 8.98 9 9 0 0 0 9.01-8.98 9.05 9.05 0 0 0-9.01-9.05s4.97 0 0 0zm0-2c6.08 0 11.01 4.96 11.01 11.05 0 6.08-4.93 10.98-11.01 10.98-6.09 0-11.02-4.9-11.02-10.98 0-6.09 4.93-11.05 11.02-11.05z" />
</svg>
