<svg xmlns="http://www.w3.org/2000/svg" xmlns:xlink="http://www.w3.org/1999/xlink" width="32" height="32" viewBox="0 0 32 32">
    <path transform="translate(-795 -1494)" d="M811 1494a16 16 0 1 1 0 32 16 16 0 0 1 0-32zm-14 16c0 .68.06 1.35.15 2h6.11a8.01 8.01 0 0 1 0-4h-6.1c-.1.65-.15 1.32-.15 2zm10-6.92v-6.5a14.02 14.02 0 0 0-9.4 9.42h6.48c.7-1.21 1.71-2.22 2.92-2.92zm0 20.34v-6.5a8.03 8.03 0 0 1-2.92-2.92h-6.5a14.02 14.02 0 0 0 9.42 9.42zm4 .58c.68 0 1.35-.05 2-.14v-6.11a8 8 0 0 1-4 0v6.1c.65.1 1.32.15 2 .15zm13.99-14c0-.68-.05-1.35-.14-2h-6.11a8.01 8.01 0 0 1 0 4h6.1c.1-.65.15-1.32.15-2zM815 1496.6v6.5c1.2.7 2.22 1.7 2.92 2.9h6.49a14.02 14.02 0 0 0-9.41-9.4zm0 20.34v6.49a14.02 14.02 0 0 0 9.41-9.42h-6.49a8.03 8.03 0 0 1-2.92 2.93zm-4-14.92a8 8 0 0 1 2 .25v-6.1a14.1 14.1 0 0 0-4 0v6.1a8 8 0 0 1 2-.25zm-5.99 8a6 6 0 1 0 11.98 0 6 6 0 0 0-11.98 0z" />
</svg>
