<svg xmlns="http://www.w3.org/2000/svg" xmlns:xlink="http://www.w3.org/1999/xlink" width="32" height="32" viewBox="0 0 32 32">
    <path transform="translate(-795 -1295)" d="M811.1 1312.62a1 1 0 0 1-.48-.12l-14.84-8.09a1 1 0 0 1 .03-1.77l15-7.54a1 1 0 0 1 .9 0l14.85 7.55a1 1 0 0 1 .02 1.77l-15 8.08a1 1 0 0 1-.48.12zm-12.69-9.05l12.7 6.91 12.84-6.92-12.7-6.44zm28.52 7.3a1 1 0 0 1-.52.9l-15 8.08a1 1 0 0 1-.96 0l-14.85-8.09a1 1 0 0 1 .03-1.77l3.14-1.57 2.14 1.16-2.67 1.34 12.7 6.91 12.84-6.92-2.5-1.27 2.14-1.15 2.97 1.5a1 1 0 0 1 .54.88zm0 7a1 1 0 0 1-.52.9l-15 8.08a1 1 0 0 1-.96 0l-14.85-8.09a1 1 0 0 1 .03-1.77l2.95-1.36 2.14 1.17-2.48 1.12 12.7 6.91 12.84-6.92-2.35-1.14 2.14-1.16 2.82 1.38a1 1 0 0 1 .54.88z" />
</svg>
