<svg xmlns="http://www.w3.org/2000/svg" xmlns:xlink="http://www.w3.org/1999/xlink" width="32" height="33" viewBox="0 0 32 33">
    <path transform="translate(-494 -1294)"  d="M494.98 1325.98l-.98.02-.02-1.02c0-5.03 1.01-6.08 3.16-7.15.51-.25 1.04-.49 1.61-.93l1.22 1.56c-.73.56-1.4.9-1.94 1.16-1.29.64-1.93 1-2.03 4.38 3.5-.13 3.9-1 4.52-2.3.25-.51.52-1.09.97-1.7l1.48 1.35c-.36.61-.49.92-.7 1.37-1 2.06-1.99 3.26-7.29 3.26zM516 1308a4.02 4.02 0 1 1 0-8.03 4.02 4.02 0 0 1 0 8.03zm0-6.01a2 2 0 1 0 0 4 2 2 0 0 0 0-4zm-8.7 24.15a1 1 0 0 1-.97-.77l-1.23-5.15-2.26-2.5c-1.08-1.2-1.76-1.96-2.16-2.46l-5.97-1.37a1 1 0 0 1-.53-1.63l3.67-3.98a1 1 0 0 1 .75-.33h5.56c.35-.63.76-1.44 1.18-2.3 1.1-2.2 2.36-4.85 3.62-6.32a12.13 12.13 0 0 1 5.1-3.66c5.38-2.02 10.98-1.6 10.98-1.6.5.03.9.43.92.93.02.26.38 6.5-1.3 11.01-.71 1.9-1.43 3.19-3.4 4.94-1.4 1.25-4.78 2.83-7.05 4.09-.83.46-1.71.94-2.21 1.25v5.16a1 1 0 0 1-.35.76l-3.7 3.69a1 1 0 0 1-.66.24zm-5.37-12.43l4.83 5.36a1 1 0 0 1 .23.44l.9 3.8L510 1321v-5.23a1 1 0 0 1 .37-.77c.4-.33 1.33-.83 2.87-1.7 2.06-1.15 5.45-2.73 6.69-3.83a8.84 8.84 0 0 0 2.85-4.14c1.18-3.17 1.25-7.45 1.22-9.3a27 27 0 0 0-9.24 1.52 10.07 10.07 0 0 0-4.28 3.09c-1.1 1.28-2.35 3.92-3.35 5.92a43 43 0 0 1-1.54 2.92 1 1 0 0 1-.85.48h-5.7l-2.24 2.37 4.58 1.05a1 1 0 0 1 .55.34z" />
</svg>
