<svg xmlns="http://www.w3.org/2000/svg" xmlns:xlink="http://www.w3.org/1999/xlink" width="32" height="32" viewBox="0 0 32 32">
    <path transform="translate(-1094 -1495)" d="M1126 1510.08v2c0 1.1-1.05 1.78-2 2l-2.6.65c-.2.6-.44 1.16-.71 1.71l1.39 2.32c.51.83.78 2.05 0 2.83l-1.42 1.41c-.78.78-2.1.64-2.9.09l-2.25-1.44c-.58.3-1.18.56-1.8.76l-.59 2.6c-.17.96-1 1.99-2.1 1.99h-2c-1.1 0-1.79-1.05-2-2l-.64-2.56c-.69-.22-1.34-.5-1.96-.82l-2.32 1.47c-.8.55-2.11.7-2.9-.09l-1.4-1.41c-.79-.78-.52-2 0-2.83l1.46-2.44c-.26-.51-.48-1.04-.66-1.6l-2.6-.64c-.95-.22-2-.9-2-2v-2c0-1.1 1.03-1.94 1.98-2.11l2.57-.57c.19-.6.43-1.17.7-1.72l-1.46-2.43c-.52-.83-.78-2.05 0-2.83l1.42-1.42c.78-.78 2.1-.64 2.9-.09l2.3 1.47c.62-.32 1.27-.6 1.95-.81l.64-2.57c.22-.95.9-2 2-2h2c1.1 0 1.94 1.03 2.1 1.98l.59 2.6c.63.2 1.24.47 1.82.77l2.26-1.44c.8-.55 2.11-.69 2.89.1l1.42 1.4c.78.79.51 2 0 2.84l-1.4 2.3c.3.6.57 1.21.77 1.85l2.57.57c.95.17 1.98 1 1.98 2.1zm-1.98.08c-.04-.07-.21-.2-.44-.24l-3.7-.82-.34-1.1c-.15-.5-.36-1-.63-1.53l-.51-.99 1.98-3.3c.1-.17.16-.34.18-.45l-1.31-1.27a.75.75 0 0 0-.41.14l-3.22 2.06-1.03-.54a9.9 9.9 0 0 0-1.52-.64l-1.09-.35-.84-3.8c-.02-.14-.15-.31-.14-.33h-1.86c-.06.09-.15.25-.2.48l-.91 3.65-1.06.34c-.55.18-1.1.4-1.63.68l-1.02.55-3.36-2.14c-.07-.05-.21-.1-.34-.14l-1.31 1.31c.02.1.07.29.2.49l2.02 3.37-.48.98c-.26.51-.45.98-.6 1.43l-.34 1.1-3.77.84c-.14.02-.3.14-.34.14v1.86c.09.06.25.15.48.2l3.68.92.34 1.05c.14.43.32.86.55 1.32l.48.98-2.04 3.41c-.11.18-.16.35-.18.45l1.31 1.28c.13 0 .27-.06.4-.15l3.3-2.1 1.03.55c.53.28 1.08.5 1.63.68l1.06.34.92 3.68c.05.2.13.36.2.45h1.8a.76.76 0 0 0 .21-.42l.83-3.72 1.09-.35c.5-.17 1-.38 1.5-.63l1.02-.53 3.3 2.1c.06.04.2.1.34.14l1.31-1.32c-.02-.1-.07-.28-.2-.48l-1.96-3.27.5-.99c.24-.47.45-.95.6-1.42l.34-1.05 3.71-.93c.2-.05.37-.13.45-.2zm-14 6.85a6.02 6.02 0 0 1-6.03-6.01 6.02 6.02 0 0 1 12.05 0c0 3.31-2.7 6-6.03 6zM1110 1507a4 4 0 1 0 0 8 4 4 0 0 0 0-8z" />
</svg>
