<svg width="551pt" height="112" viewBox="0 0 551 84" xmlns="http://www.w3.org/2000/svg"><path fill="#06c" d="M48.51 0h1.05c15.82 28.28 32.85 55.9 49.02 84H0v-1.37C16.35 55.2 32.7 27.73 48.51 0m-2.83 33.66C38.7 45.41 31.68 57.12 24.91 69h48.17c-7.6-13.45-15.72-26.6-23.37-39.99-2.6-.51-2.89 3.04-4.03 4.65z"/><path d="M197.15 3.29c1.88-.05 3.75-.05 5.63 0 .06 11.46 0 22.91.02 34.37 6.63-8.72 19.1-12.72 29.11-7.56 6.89 4.02 8.62 12.48 8.74 19.84-.04 11.36-.01 22.71-.02 34.06h-5.61c-.46-13.95 1.06-28.04-1.01-41.88-1.08-3.47-3.09-7.1-6.6-8.59-8.96-4.33-19.8 1.37-24.6 9.3-.01 13.73 0 27.45-.01 41.17h-5.68c.03-26.9-.04-53.81.03-80.71zm135.06 1.74c10.94-.01 21.88-.14 32.82.07 7.83 1.09 16.37 4.07 20.72 11.14 7.76 12.04 3.69 30.6-9.93 36.5-8.7 4.57-18.68 2.97-28.08 3.29-.08 9.32-.01 18.65-.03 27.97H332.2c.01-26.32-.02-52.64.01-78.97m15.52 10.99c-.04 9.65-.04 19.31 0 28.96 7.55-.21 16.13 1.44 22.39-3.86 5.49-5.32 5.47-15.16.68-20.93-6.36-5.55-15.3-4.02-23.07-4.17zM126.01 6.05c20.23-.08 40.47-.09 60.71 0 .01 1.3.01 2.6 0 3.9-9.23.14-18.47-.03-27.7.07-.1 24.66-.02 49.32-.04 73.98h-5.78c-.02-24.66.04-49.31-.03-73.97-9.06-.11-18.11.06-27.16-.08-.02-1.3-.02-2.6 0-3.9zm280.06 25.09c11.76-7.45 30.14-5.44 37.11 7.59 2.38 5.82 4.62 13.55 1.45 19.15-12.17.29-24.37.04-36.55.11.95 4.49 1.33 9.7 5.1 12.88 4.13 3.87 10.26 3.96 15.51 2.95 4.31-.93 7.72-4.81 12.4-3.82 1.36 2.05 3.02 3.87 4.72 5.64-3.38 4.24-8.16 6.9-13.32 8.36h-19.27c-22.18-6.22-25.79-40.6-7.15-52.86m2.6 18.83c8.24.05 16.47.04 24.7.01 1.15-6.85-4.69-12.81-11.34-13.01-7.11-.31-13.4 5.94-13.36 13zm48.2-14.22c7.84-7.71 19.92-10.34 30.48-8.05 9.02 2.2 14.43 11.35 14.45 20.25.01 12.02 0 24.03 0 36.05h-9.34c-1.75-1.45-2.54-3.52-2.91-5.71-3.28 1.89-6.26 4.29-9.8 5.71h-16.67c-9.2-3.46-12.16-17.05-4.79-23.72 7.99-7.1 19.47-8.43 29.76-8.31.3-4.37.01-9.5-3.28-12.73-6.14-3.66-13.32-.66-18.83 2.73-4.53 2.82-7.32-2.97-9.07-6.22M468 66.32c-.55 2.97-.4 6.51 2.23 8.48 6.21 3.05 13.54-.33 17.81-5.14.09-3.21.05-6.42.02-9.63-6.91.26-15.32.36-20.06 6.29zm59.93-29.36c4.43-7.87 14.52-13 23.07-8.31v2.54c-1.37 3.11-1.22 6.6-2.53 9.73-2.92.46-5.54-1.4-8.45-.95-5.21.28-9.25 4.6-11.2 9.14-.26 11.62-.04 23.26-.11 34.89h-14.34c0-18.65-.01-37.3 0-55.95 3.74.02 7.52-.34 11.23.21 2.14 2.24 1.16 5.93 2.33 8.7zm-272.53 4.4c5.73-14.41 27.68-18.37 37.85-6.6 5.03 4.89 6.09 12.46 5.59 19.15-13.64.24-27.29-.02-40.93.13.51 7.85 1.22 16.96 7.74 22.37 7.89 6.93 20.16 5.32 28.1-.69 1.62-1.65 3.58-.14 4.46 1.45-2.6 3.54-6.79 5.07-10.63 6.83h-18.33c-16.69-5.92-20.49-28-13.85-42.64m3.21 9.62c11.81.03 23.62.04 35.42-.01-.02-7.82-4.35-16.91-12.81-18.35-11.26-3.38-22.97 6.89-22.61 18.36z" fill="#fff"/></svg>